<?xml version="1.0" encoding="UTF-8" standalone="no"?>
<svg width="26px" height="27px" viewBox="0 0 26 27" version="1.1" xmlns="http://www.w3.org/2000/svg" xmlns:xlink="http://www.w3.org/1999/xlink">
    <!-- Generator: Sketch 39.1 (31720) - http://www.bohemiancoding.com/sketch -->
    <title>twitter</title>
    <desc>Created with Sketch.</desc>
    <defs></defs>
    <g id="Welcome" stroke="none" stroke-width="1" fill="none" fill-rule="evenodd" opacity="0.6">
        <g id="Homepage-with-Menu" transform="translate(-862.000000, -206.000000)" fill="#1C8EF5">
            <g id="sidemenu" transform="translate(725.000000, 0.000000)">
                <g id="introduction" transform="translate(30.000000, 206.586060)">
                    <g id="social-buttons" transform="translate(64.000000, 0.000000)">
                        <g id="twitter" transform="translate(43.000000, 0.000000)">
                            <g id="Capa_1">
                                <g id="Group">
                                    <path d="M21.0985996,0 L4.86888706,0 C2.17962218,0 0,2.18582309 0,4.8827388 L0,21.1586241 C0,23.8555398 2.17962218,26.0413629 4.86888706,26.0413629 L21.0985996,26.0413629 C23.7878645,26.0413629 25.9674867,23.8554862 25.9674867,21.1586241 L25.9674867,4.8827388 C25.96754,2.18582309 23.7878645,0 21.0985996,0 L21.0985996,0 Z M19.4431951,10.0975325 L19.4529117,10.5125744 C19.4529117,14.750799 16.2378275,19.6335914 10.35777,19.6335914 C8.55303901,19.6335914 6.87323614,19.1030102 5.45802464,18.1931518 C5.70798768,18.2224382 5.96275565,18.2387143 6.22083368,18.2387143 C7.7188501,18.2387143 9.09674333,17.7260155 10.1906119,16.8666454 C8.79163039,16.8406249 7.61170021,15.9128842 7.20434908,14.6401319 C7.40071047,14.6759501 7.5987269,14.6954922 7.80645996,14.6954922 C8.09859959,14.6954922 8.3809692,14.6580678 8.64876386,14.5848251 C7.18646407,14.2885884 6.08448049,12.9946878 6.08448049,11.4419749 L6.08448049,11.4012845 C6.51617659,11.6421609 7.00793429,11.7853803 7.53215195,11.8033162 C6.67521971,11.2287787 6.1104271,10.2473374 6.1104271,9.13568686 C6.1104271,8.54813916 6.26786858,7.9980159 6.5421232,7.52440126 C8.11803285,9.46447586 10.4745832,10.7404941 13.1313881,10.8739693 C13.0761848,10.6395713 13.0486366,10.3938228 13.0486366,10.1432021 C13.0486366,8.37402715 14.480078,6.93845975 16.2458891,6.93845975 C17.1644846,6.93845975 17.9954702,7.32742769 18.5796961,7.95079364 C19.3067885,7.80591446 19.9917043,7.53901767 20.6100452,7.17280423 C20.3714538,7.92150727 19.8651211,8.54974536 19.2045503,8.94685136 C19.8488912,8.87034274 20.467232,8.69617719 21.0401396,8.44229062 C20.6117002,9.08353893 20.0679959,9.64833214 19.4431951,10.0975325 L19.4431951,10.0975325 Z" id="Shape"></path>
                                </g>
                            </g>
                        </g>
                    </g>
                </g>
            </g>
        </g>
    </g>
</svg>